<?xml version="1.0" encoding="UTF-8" standalone="no"?>
<!-- Created with Inkscape (http://www.inkscape.org/) -->

<svg
   width="210mm"
   height="297mm"
   viewBox="0 0 210 297"
   version="1.1"
   id="svg5"
   inkscape:version="1.1.2 (0a00cf5339, 2022-02-04)"
   sodipodi:docname="meshgrid.svg"
   xmlns:inkscape="http://www.inkscape.org/namespaces/inkscape"
   xmlns:sodipodi="http://sodipodi.sourceforge.net/DTD/sodipodi-0.dtd"
   xmlns="http://www.w3.org/2000/svg"
   xmlns:svg="http://www.w3.org/2000/svg">
  <sodipodi:namedview
     id="namedview7"
     pagecolor="#ffffff"
     bordercolor="#666666"
     borderopacity="1.0"
     inkscape:pageshadow="2"
     inkscape:pageopacity="0.0"
     inkscape:pagecheckerboard="0"
     inkscape:document-units="mm"
     showgrid="false"
     inkscape:zoom="1.2436321"
     inkscape:cx="363.85359"
     inkscape:cy="699.56382"
     inkscape:window-width="1920"
     inkscape:window-height="1007"
     inkscape:window-x="0"
     inkscape:window-y="0"
     inkscape:window-maximized="1"
     inkscape:current-layer="layer1" />
  <defs
     id="defs2" />
  <g
     inkscape:label="Layer 1"
     inkscape:groupmode="layer"
     id="layer1">
    <path
       style="fill:#000000;stroke-width:0.130109"
       id="path42"
       d="m 104.1736,29.917666 c -0.6515,0.578133 -1.11315,1.334775 -1.70528,1.964505 -0.32352,0.344067 -0.70255,0.632443 -1.03138,0.971439 -0.26067,0.268728 -2.520982,2.806435 -2.653722,2.95508 -1.48491,1.89791 -3.25681,3.535363 -4.90557,5.28319 -2.69043,2.852069 -0.53812,0.778656 -3.19508,3.237267 0,0 0.22271,3.528667 0.22271,3.528667 v 0 c 0.51944,-0.496036 1.05134,-0.979341 1.55832,-1.488111 1.55744,-1.562961 1.79263,-1.940615 3.33648,-3.551427 0.54198,-0.565489 1.10816,-1.107332 1.65566,-1.667476 0.52948,-0.541702 1.05012,-1.091972 1.57518,-1.637958 1.450592,-1.645751 2.933372,-3.27013 4.486082,-4.821465 0.17952,-0.179361 0.37908,-0.338182 0.55533,-0.520762 0.12999,-0.134669 0.24123,-0.286257 0.36185,-0.429385 0,0 -0.26058,-3.823564 -0.26058,-3.823564 z" />
    <path
       style="fill:#000000;stroke-width:0.130109"
       id="path44"
       d="m 89.898168,43.369532 c -0.51206,0.486167 -1.06214,0.941624 -1.52321,1.485423 -0.51025,0.642861 -1.18226,1.112834 -1.79357,1.64863 -1.13464,0.994477 0.0313,0.0258 -1.16163,0.998863 -0.67266,0.508479 -1.18891,1.18553 -1.85084,1.706121 -0.20118,0.158219 -0.44361,0.261215 -0.63651,0.429426 -1.93186,1.684607 0.59716,-0.228422 -1.20391,1.092578 -0.33236,0.328617 -0.78337,0.507922 -1.12823,0.819605 -0.19208,0.173598 -0.32772,0.40371 -0.52063,0.576377 -0.14942,0.13374 -0.33997,0.213892 -0.49892,0.336162 -0.10098,0.07768 -0.77792,0.686846 -0.88227,0.780269 -0.41202,0.346524 -0.79545,0.724251 -1.19299,1.08693 0,0 0.21926,3.819268 0.21926,3.819268 v 0 c 0.38474,-0.366567 0.74805,-0.760835 1.19172,-1.058803 0.14233,-0.131087 0.28466,-0.262173 0.427,-0.393255 0.15122,-0.0961 0.31528,-0.174469 0.45365,-0.28829 0.25336,-0.208429 0.8007,-0.83211 1.00562,-1.058331 1.83245,-1.529184 -0.9195,1.189619 1.12608,-0.908966 1.27842,-0.972783 2.54527,-1.955283 3.70996,-3.065927 0.20257,-0.155095 0.41583,-0.297135 0.60769,-0.465284 0.17345,-0.152007 0.88749,-0.906852 1.08145,-1.068721 0.14698,-0.122663 0.33588,-0.19098 0.47579,-0.321646 0.29554,-0.276015 0.46569,-0.669982 0.80153,-0.910651 0.22126,-0.200064 0.41592,-0.429294 0.64511,-0.620224 0.46642,-0.388565 0.12499,0.03714 0.53695,-0.405685 0.0726,-0.07809 0.11682,-0.181464 0.196,-0.252915 0.036,-0.03244 0.0915,-0.03182 0.13721,-0.04773 0,0 -0.22231,-3.913225 -0.22231,-3.913225 z" />
    <path
       style="fill:#000000;stroke-width:0.130109"
       id="path46"
       d="m 87.651268,73.746811 c 0.22192,-0.254202 0.34638,-0.573177 0.5427,-0.843961 0.1241,-0.171179 0.29141,-0.30857 0.41222,-0.48209 0.18182,-0.261155 0.31842,-0.551417 0.49267,-0.817672 0.38299,-0.585201 0.7302,-1.008605 1.15946,-1.561158 1.74697,-2.593456 -0.42873,0.569582 1.31727,-1.77189 0.23502,-0.315174 0.42269,-0.664274 0.66259,-0.975741 0.21912,-0.284464 0.48563,-0.529642 0.71177,-0.80855 0.52818,-0.65141 1.01196,-1.337607 1.52185,-2.003431 0.82983,-0.943821 1.71366,-1.839323 2.5556,-2.771795 0.29188,-0.323259 0.56165,-0.666222 0.85747,-0.985876 0.57337,-0.61956 1.17837,-1.209211 1.75613,-1.824674 1.899792,-2.124717 -0.0478,-0.003 1.901022,-1.964351 1.60532,-1.615748 0.41881,-0.541976 2.05667,-2.13652 2.90072,-2.823999 -0.79818,0.904432 2.09489,-2.036591 0.72556,-0.626657 1.31263,-1.390491 2.0018,-2.052646 2.2418,-2.153958 -0.27939,0.489363 1.92762,-1.778835 1.47685,-1.517793 0.29684,-0.464058 1.76667,-1.701263 0.58492,-0.462263 0.99164,-1.097955 1.52752,-1.606837 0.21182,-0.201142 0.45868,-0.361825 0.68801,-0.542737 0,0 -0.22517,-3.769247 -0.22517,-3.769247 v 0 c -0.72643,0.71701 -1.37672,1.514887 -2.2234,2.09824 -1.17488,1.279537 -2.40182,2.522121 -3.68698,3.692165 -0.32575,0.296571 -0.67216,0.570041 -0.99557,0.869156 -0.34862,0.322423 -0.67983,0.663166 -1.01974,0.994748 -3.45868,3.496181 1.50263,-1.565067 -2.08099,2.253382 -0.98308,1.047496 -1.05578,0.974871 -2.07098,1.949674 -0.33151,0.31832 -0.64412,0.655763 -0.96596,0.983862 -0.3141,0.320209 -0.627902,0.640709 -0.941862,0.961061 -0.29664,0.338016 -0.59328,0.676033 -0.88992,1.014049 -0.29134,0.278971 -0.60545,0.535961 -0.87402,0.836914 -0.30864,0.345835 -0.54338,0.753277 -0.85297,1.098257 -0.26929,0.300062 -0.59583,0.543888 -0.87862,0.831254 -0.67053,0.681393 -1.0757,1.192614 -1.69189,1.925213 -2.20753,2.55209 0.60098,-0.750563 -1.53491,1.946378 -0.22415,0.283033 -0.49552,0.526702 -0.71706,0.811786 -0.67456,0.868017 -1.17655,1.87648 -2.00156,2.626344 -0.19834,0.319172 -0.38358,0.646871 -0.59502,0.957527 -1.24516,1.829429 0.0914,-0.264711 -1.06815,1.364348 -0.0629,0.08837 -0.5959,0.989614 -0.71023,1.138281 -0.0618,0.08037 -0.149,0.137533 -0.2235,0.2063 0,0 0.29457,3.876926 0.29457,3.876926 z" />
    <path
       style="fill:#000000;stroke-width:0.130109"
       id="path48"
       d="m 96.671468,90.865002 c 0.40308,-0.40611 0.62526,-0.9532 0.96723,-1.39934 0.18789,-0.24513 0.43513,-0.43991 0.62903,-0.68031 2.217822,-2.749625 -0.80706,0.73773 1.54974,-1.933044 0.296732,-0.388696 0.575872,-0.791467 0.890182,-1.166089 0.69113,-0.82375 1.47738,-1.564173 2.17314,-2.384023 0.41901,-0.493745 0.79999,-1.01876 1.21426,-1.516488 0.41881,-0.503191 0.85636,-0.990489 1.28453,-1.485728 0.43012,-0.516857 0.86023,-1.033709 1.29034,-1.550566 0.43737,-0.459233 0.89343,-0.901363 1.3121,-1.3777 0.26648,-0.303166 2.32261,-2.869944 2.58513,-3.178253 0.27309,-0.320727 2.39597,-2.665665 2.6692,-2.979045 0.45179,-0.518175 0.88891,-1.048968 1.33336,-1.573452 0.44243,-0.567689 0.87009,-1.147201 1.32729,-1.703068 0.71425,-0.868367 1.85982,-2.100199 2.60296,-2.951211 0.4274,-0.489447 0.83663,-0.99461 1.26577,-1.482532 3.06512,-3.484936 -0.58863,0.788255 2.45407,-2.797027 4.60278,-5.651914 -2.08198,2.528761 2.33145,-2.784807 0.36612,-0.440793 0.69151,-0.915511 1.07333,-1.342781 0.31481,-0.352296 0.67515,-0.661098 1.01274,-0.991644 0,0 -0.2614,-3.745489 -0.2614,-3.745489 v 0 c -1.43388,1.749798 -2.90919,3.461777 -4.41646,5.148893 -1.24414,1.463742 -2.45281,2.957186 -3.71564,4.404961 -0.425,0.487233 -0.86807,0.958633 -1.28857,1.449746 -3.82104,4.462678 1.19636,-1.253891 -2.64742,3.100045 -0.44572,0.499395 -0.90314,0.988586 -1.33716,1.49818 -0.91207,1.0709 -1.73153,2.218642 -2.64772,3.286016 -0.41545,0.483993 -0.88684,0.917945 -1.30338,1.400994 -0.44998,0.521839 -0.863,1.074446 -1.2945,1.611667 -0.43422,0.499719 -0.86844,0.999438 -1.30267,1.499158 -0.4308,0.497039 -0.86161,0.994078 -1.29242,1.491113 -0.42892,0.479164 -0.86372,0.95312 -1.28674,1.437487 -0.41251,0.472319 -0.80388,0.962921 -1.21966,1.432363 -0.37075,0.418595 -0.76908,0.812224 -1.13943,1.231173 -0.66378,0.750887 -1.27452,1.547527 -1.941072,2.296112 -0.2716,0.351545 -0.54321,0.703094 -0.81481,1.054643 -0.24749,0.253204 -0.51557,0.487809 -0.74247,0.759616 -0.22733,0.272313 -0.38974,0.594573 -0.61604,0.867728 -0.14445,0.174355 -0.34467,0.296527 -0.49139,0.46897 -0.13038,0.15323 -0.22325,0.334765 -0.33488,0.502148 -0.0622,0.06604 -0.12442,0.13208 -0.18662,0.198118 0,0 0.3146,3.883466 0.3146,3.883466 z" />
    <path
       style="fill:#000000;stroke-width:0.130109"
       id="path50"
       d="m 71.645548,51.495836 c 0.46576,0.726886 1.32036,1.090703 1.97517,1.618268 0.18691,0.150594 1.76087,1.604828 1.87436,1.709262 1.20965,0.992741 2.43714,1.981194 3.58042,3.0514 0.4443,0.41591 0.85762,0.863774 1.29138,1.290665 4.20122,4.134708 -1.61129,-1.638122 2.70956,2.662154 3.04275,3.252026 6.23107,6.36169 9.26634,9.620699 2.05589,2.250881 4.16798,4.452607 6.21574,6.710864 0.94283,1.039743 1.859252,2.103218 2.800692,3.144219 2.26425,2.359402 0.35442,0.328128 2.49444,2.719168 0.95938,1.071918 1.18981,1.260574 2.10748,2.332743 1.94505,2.272494 -0.0818,0.02164 1.77177,2.050134 0.80997,0.72676 1.42233,1.62751 2.06802,2.49384 0,0 0.39819,-3.82926 0.39819,-3.82926 v 0 c -0.6892,-0.79066 -1.34123,-1.614858 -2.09477,-2.347088 -0.58621,-0.664491 -1.20149,-1.30317 -1.78095,-1.973557 -0.3442,-0.398216 -0.64979,-0.829061 -0.99912,-1.222793 -1.17934,-1.329232 -2.54882,-2.48946 -3.59847,-3.935759 -2.649062,-2.658663 -0.10025,-0.04386 -2.814142,-3.013954 -0.49129,-0.537663 -1.00723,-1.052342 -1.50309,-1.58578 -1.56987,-1.688818 -3.10425,-3.411246 -4.72356,-5.053918 -2.15783,-2.226028 -1.09181,-1.075463 -3.19424,-3.455258 -0.51526,-0.544965 -1.08219,-1.039123 -1.6039,-1.577917 -0.52849,-0.545796 -1.02351,-1.123154 -1.54579,-1.674901 -5.92908,-6.263683 2.76217,3.019747 -2.91932,-3.061993 -0.46034,-0.450927 -0.92523,-0.897257 -1.38102,-1.352783 -0.44877,-0.448513 -0.87181,-0.922971 -1.33253,-1.3592 -0.42048,-0.398123 -0.88623,-0.746353 -1.30908,-1.141949 -0.4356,-0.407525 -0.82137,-0.866991 -1.26478,-1.266 -0.26809,-0.241238 -1.99198,-1.567581 -2.32791,-1.827553 -1.70182,-1.910945 -0.23793,-0.37722 -1.86629,-1.837472 -0.2527,-0.226617 -0.46493,-0.497645 -0.72871,-0.711274 -0.18631,-0.150885 -0.42141,-0.231966 -0.61333,-0.375636 -0.2345,-0.175536 -0.41406,-0.416201 -0.64027,-0.601876 0,0 -0.31229,3.802505 -0.31229,3.802505 z" />
    <circle
       id="path106"
       style="fill:#000000;stroke:#000000;stroke-width:0.130109"
       cx="102.43731"
       cy="22.225639"
       r="0.060415931" />
    <circle
       id="path108"
       style="fill:#000000;stroke:#000000;stroke-width:0.130109"
       cx="102.43731"
       cy="22.225639"
       r="0.060415931" />
    <path
       style="fill:#000000;stroke-width:0.130109"
       id="path110"
       d="m 91.836728,43.67528 c 0.49959,0.717627 1.23209,1.234521 1.84698,1.843725 2.76592,2.740328 -1.20131,-0.985566 1.9772,1.960407 1.74761,1.902114 3.65807,3.63974 5.490812,5.456463 3.73415,3.701498 -0.58785,-0.476704 3.22533,3.183658 1.1019,1.09088 2.07221,2.303356 3.13921,3.426215 0.47899,0.504066 1.00722,0.960285 1.47918,1.470941 0.47833,0.517546 0.89789,1.087005 1.36919,1.610953 0.4172,0.463807 0.86846,0.895891 1.29513,1.350998 0.40249,0.429315 0.7948,0.868062 1.19219,1.302093 3.47547,3.858186 -1.16043,-1.247026 2.17994,2.305815 0.35114,0.373472 0.66716,0.779114 1.02098,1.150058 0.32103,0.33658 0.67116,0.644206 1.00213,0.971025 0.94481,0.932949 0.96456,0.971192 1.86383,1.926698 0.28181,0.281833 0.56363,0.563672 0.84545,0.845505 0,0 0.35817,-3.852068 0.35817,-3.852068 v 0 c -0.28658,-0.218014 -0.57317,-0.436022 -0.85976,-0.654036 -0.30044,-0.312898 -0.60694,-0.620096 -0.90132,-0.938698 -0.3222,-0.348702 -0.61919,-0.720516 -0.94811,-1.062879 -0.32022,-0.333311 -0.67021,-0.636811 -0.99795,-0.962735 -1.11501,-1.108794 -2.16452,-2.279289 -3.19561,-3.465865 -0.40198,-0.386493 -0.81745,-0.759429 -1.20595,-1.159475 -1.42337,-1.465709 -2.70886,-3.060926 -4.1384,-4.521737 -0.50642,-0.517491 -1.0541,-0.993621 -1.55845,-1.513134 -0.54978,-0.566316 -1.06845,-1.162032 -1.60267,-1.74305 -2.8533,-2.96544 -5.749982,-5.883629 -8.713572,-8.739019 -0.89892,-0.915249 -1.77304,-1.85921 -2.68371,-2.76265 -0.35034,-0.347555 -0.61677,-0.528412 -0.89984,-0.917757 -0.0853,-0.117306 -0.14323,-0.252239 -0.21485,-0.378358 0,0 -0.36553,3.866907 -0.36553,3.866907 z" />
    <path
       style="fill:#000000;stroke-width:0.130109"
       id="path112"
       d="m 99.769428,26.332624 c 0.20647,0.214379 0.492922,0.336444 0.700582,0.548082 0.19356,0.197259 0.33057,0.445203 0.52458,0.642013 0.19618,0.199017 0.44231,0.34384 0.64098,0.540376 0.52446,0.518828 0.98547,1.098118 1.48246,1.643321 0.27504,0.315052 0.53609,0.642879 0.82511,0.945152 0.29172,0.305097 0.6252,0.568508 0.91533,0.875108 0.32934,0.348031 0.61946,0.731418 0.94105,1.08662 0.31702,0.350153 0.66102,0.675439 0.97433,1.02892 0.60566,0.683316 1.42656,1.735655 1.9917,2.44632 3.23696,3.854277 -1.17288,-1.345304 2.00514,2.242872 0.34743,0.392273 0.65761,0.816318 1.0007,1.212392 0.33189,0.383133 0.6992,0.735088 1.02364,1.124543 2.7368,3.285218 -0.61766,-0.465798 2.17337,2.598785 0.37866,0.396004 0.75731,0.792009 1.13597,1.188013 0.37923,0.460363 0.7339,0.942112 1.13769,1.381091 0.36492,0.396721 0.78801,0.736259 1.16464,1.12187 0.39354,0.402904 1.87734,2.057753 2.26826,2.473357 0.36197,0.384817 0.73596,0.758151 1.10393,1.137228 3.65434,4.012082 -1.39929,-1.509182 2.22134,2.359888 0.37749,0.403396 0.72845,0.831236 1.10918,1.231583 0.35841,0.376884 0.74602,0.725129 1.10737,1.099206 1.3796,1.490193 0.69242,0.764316 2.06006,2.179021 1.28593,1.300106 2.38114,2.769715 3.62989,4.103364 1.32142,1.411262 0.3388,0.209767 1.53842,1.77393 0.22571,0.26531 0.4442,0.536925 0.67711,0.795931 0.20364,0.226467 0.43839,0.424747 0.63199,0.659859 0.41216,0.50057 0.72398,1.07838 1.13573,1.579294 0.16571,0.201594 0.36461,0.373585 0.54047,0.566396 0.17133,0.18784 0.33388,0.383499 0.50082,0.575248 0.55211,0.650466 1.01461,1.361472 1.61137,1.972721 0,0 0.39145,-3.700426 0.39145,-3.700426 v 0 c -0.50013,-0.721869 -1.11742,-1.337829 -1.60765,-2.067153 -0.41402,-0.535012 -0.56792,-0.759217 -1.0319,-1.256192 -0.1867,-0.199977 -0.40417,-0.371008 -0.5806,-0.580102 -0.21088,-0.249928 -0.36435,-0.545088 -0.57783,-0.792804 -1.74092,-2.020141 0.5937,1.068683 -1.30333,-1.529101 -0.99482,-1.12994 -0.47617,-0.578198 -1.5574,-1.653883 -0.30029,-0.332563 -0.56392,-0.696598 -0.85422,-1.037914 -0.88449,-1.039934 -1.78136,-2.079628 -2.79243,-2.999745 -2.10203,-2.353155 -4.31962,-4.595573 -6.4995,-6.875881 -2.16767,-2.415199 -0.0117,-0.03262 -2.22035,-2.414875 -1.00896,-1.088239 -1.25845,-1.410107 -2.2949,-2.467641 -0.37931,-0.387033 -0.78908,-0.744136 -1.15807,-1.141021 -0.39155,-0.421143 -0.74766,-0.873895 -1.12149,-1.310842 -3.22671,-3.960165 0.911,1.047367 -2.17981,-2.484949 -0.35332,-0.403787 -0.67095,-0.837469 -1.00989,-1.2534 -0.98359,-1.207032 -2.01522,-2.371925 -2.99399,-3.58289 -1.00728,-1.134836 -1.96008,-2.318864 -2.97523,-3.446027 -0.60249,-0.668976 -1.26743,-1.280536 -1.86048,-1.957898 -0.28707,-0.327879 -0.5464,-0.679045 -0.8196,-1.018568 -0.26041,-0.255333 -0.53557,-0.496459 -0.78125,-0.766 -0.45548,-0.499719 -0.85016,-1.11799 -1.3494,-1.583865 -0.16975,-0.158409 -0.3883,-0.257055 -0.56362,-0.409282 -0.25371,-0.220292 -0.43506,-0.517096 -0.71709,-0.708411 0,0 -0.314632,3.906366 -0.314632,3.906366 z" />
    <g
       id="g970"
       transform="matrix(0.34772185,0.34772185,-0.34772185,0.34772185,11.077371,-8.34376)">
      <rect
         style="fill:#000000;stroke-width:0.324988"
         id="rect320-6-3-5-23"
         width="125.98803"
         height="8.8007793"
         x="-405.94742"
         y="524.24304"
         transform="matrix(0.003891,0.99999243,0.66571878,0.74620273,0,0)" />
      <rect
         style="fill:#000000;stroke-width:0.324988"
         id="rect320-6-3-5-6-7"
         width="125.98803"
         height="8.8007793"
         x="-452.53723"
         y="586.67841"
         transform="matrix(0.003891,0.99999243,0.66571878,0.74620273,0,0)" />
      <rect
         style="fill:#000000;stroke-width:0.324988"
         id="rect320-6-3-5-2-5"
         width="125.98803"
         height="8.8007793"
         x="-499.12695"
         y="649.11371"
         transform="matrix(0.003891,0.99999243,0.66571878,0.74620273,0,0)" />
      <rect
         style="fill:#000000;stroke-width:0.324988"
         id="rect320-6-3-5-9-92"
         width="125.98803"
         height="8.8007793"
         x="319.28534"
         y="8.5987978"
         transform="matrix(0.99999243,0.003891,0.74620273,0.66571878,0,0)" />
      <rect
         style="fill:#000000;stroke-width:0.324988"
         id="rect320-6-3-5-6-3-28"
         width="125.98803"
         height="8.8007793"
         x="272.69553"
         y="71.034195"
         transform="matrix(0.99999243,0.003891,0.74620273,0.66571878,0,0)" />
      <rect
         style="fill:#000000;stroke-width:0.324988"
         id="rect320-6-3-5-2-6-9"
         width="125.98803"
         height="8.8007793"
         x="226.1058"
         y="133.46953"
         transform="matrix(0.99999243,0.003891,0.74620273,0.66571878,0,0)" />
    </g>
    <path
       id="rect320-6-3-5-23-5"
       style="fill:#000000;stroke:#000000;stroke-width:5;stroke-miterlimit:4;stroke-dasharray:none;stroke-opacity:1"
       d="m 113.10547,131.42482 -19.731091,19.88561 -0.24598,4.32066 21.997621,-22.1697 12.31346,12.40958 h 4.0411 l 12.31346,-12.4101 21.99814,22.17022 -0.2465,-4.32066 -19.73109,-19.88561 h -4.0411 l -12.31346,12.40958 -12.31346,-12.40958 z" />
    <path
       id="rect320-6-3-5-9"
       style="fill:#000000;stroke-width:0.149836"
       d="m 87.350688,173.25429 -56.937447,57.27238 v 4.06872 l 56.937447,-57.27263 z" />
    <path
       id="rect320-6-3-5-6-4"
       style="fill:#000000;stroke-width:0.149836"
       d="m 101.99006,187.89341 -56.937702,57.27263 v 4.06898 l 56.937702,-57.27289 z" />
    <path
       id="rect320-6-3-5-2-78"
       style="fill:#000000;stroke-width:0.149836"
       d="m 116.62943,202.53251 -56.937712,57.2729 v 4.06872 L 116.62943,206.6015 Z" />
    <path
       id="rect320-6-3-5-2-7-4"
       style="fill:#000000;stroke-width:0.149836"
       d="m 130.61037,217.83031 -56.937452,57.27263 v 4.06873 l 56.937452,-57.27264 z" />
    <path
       id="rect320-6-3-5-61-0"
       style="fill:#000000;stroke-width:0.149836"
       d="m 73.672918,173.25429 v 4.06847 l 56.937452,57.27263 v -4.06872 z" />
    <path
       id="rect320-6-3-5-6-2-3"
       style="fill:#000000;stroke-width:0.149836"
       d="m 59.033548,187.89366 v 4.06847 l 56.937702,57.27289 v -4.06898 z" />
    <path
       id="rect320-6-3-5-2-9-6"
       style="fill:#000000;stroke-width:0.149836"
       d="m 44.394178,202.53251 v 4.06899 l 56.937712,57.27263 v -4.06872 z" />
    <path
       id="rect320-6-3-5-2-7-3-1"
       style="fill:#000000;stroke-width:0.149836"
       d="m 30.413241,217.83031 v 4.06872 l 56.937447,57.27264 v -4.06873 z" />
    <circle
       style="fill:#000000;stroke-width:0.130109"
       id="path3651"
       cx="51.364773"
       cy="226.37308"
       r="8.0319595" />
    <circle
       style="fill:#000000;stroke-width:0.130109"
       id="path3651-0"
       cx="80.639732"
       cy="226.37308"
       r="8.0319595" />
    <circle
       style="fill:#000000;stroke-width:0.130109"
       id="path3651-6"
       cx="109.9147"
       cy="226.37308"
       r="8.0319595" />
    <circle
       style="fill:#000000;fill-opacity:0;stroke:#000000;stroke-width:1.64735;stroke-miterlimit:4;stroke-dasharray:none;stroke-opacity:1;paint-order:markers stroke fill"
       id="path3651-6-2"
       cx="95.223213"
       cy="211.65666"
       r="7.3415427" />
    <circle
       style="fill:#000000;fill-opacity:0;stroke:#000000;stroke-width:1.64735;stroke-miterlimit:4;stroke-dasharray:none;stroke-opacity:1;paint-order:markers stroke fill"
       id="path3651-6-2-0"
       cx="65.475922"
       cy="211.65666"
       r="7.3415427" />
    <text
       xml:space="preserve"
       style="font-style:normal;font-weight:normal;font-size:10.5833px;line-height:1.25;font-family:sans-serif;fill:#000000;fill-opacity:1;stroke:none;stroke-width:0.264583"
       x="49.349697"
       y="19.406261"
       id="text6541"><tspan
         sodipodi:role="line"
         id="tspan6539"
         style="stroke-width:0.264583"
         x="49.349697"
         y="19.406261">Original Partial Sketch</tspan></text>
    <text
       xml:space="preserve"
       style="font-style:normal;font-weight:normal;font-size:10.5833px;line-height:1.25;font-family:sans-serif;fill:#000000;fill-opacity:1;stroke:none;stroke-width:0.264583"
       x="144.6378"
       y="112.06657"
       id="text6541-6"><tspan
         sodipodi:role="line"
         id="tspan6539-1"
         style="stroke-width:0.264583"
         x="144.6378"
         y="112.06657">2x2 Version</tspan></text>
    <text
       xml:space="preserve"
       style="font-style:normal;font-weight:normal;font-size:10.5833px;line-height:1.25;font-family:sans-serif;fill:#000000;fill-opacity:1;stroke:none;stroke-width:0.264583"
       x="6.7688131"
       y="181.97928"
       id="text8546"><tspan
         sodipodi:role="line"
         id="tspan8544"
         style="stroke-width:0.264583"
         x="6.7688131"
         y="181.97928">3x3 Version</tspan></text>
    <path
       style="fill:#000000;fill-opacity:1;stroke:none;stroke-width:4.99999;stroke-miterlimit:4;stroke-dasharray:none;stroke-opacity:1;paint-order:markers stroke fill"
       id="path10786"
       d="m 77.832608,58.594762 c 0.436869,0.161255 -0.383318,-0.09274 0.317722,-0.249174 0.108625,-0.02424 0.159491,0.204335 0.27046,0.195792 0.162316,-0.01249 0.533291,-0.535414 0.623826,-0.579501 0.115473,-0.05623 0.256858,-0.0024 0.385287,-0.0037 0.696955,-0.133437 1.197618,-0.63137 1.746456,-1.033423 1.055624,-0.773303 -0.211442,0.278948 0.865661,-0.646253 1.198412,-0.43897 -0.443106,0.247862 0.899155,-0.71252 0.13091,-0.09367 0.335976,-0.02178 0.469987,-0.110948 0.186423,-0.124044 0.298683,-0.333692 0.44844,-0.500165 0.546991,-0.60805 0.256463,-0.367353 0.874059,-0.763516 0.140639,-0.111088 0.276225,-0.228891 0.421918,-0.333264 0.132799,-0.09514 0.294962,-0.151138 0.412546,-0.264539 0.152416,-0.146997 0.257376,-0.336325 0.385379,-0.50501 0.124825,-0.164497 0.202726,-0.377857 0.373099,-0.494532 0.105169,-0.07202 0.254498,-0.01492 0.381746,-0.02241 0.11801,-0.08449 0.236019,-0.168976 0.354031,-0.253463 0.122412,-0.114784 0.244825,-0.229565 0.367239,-0.344347 0.12522,-0.07625 0.265877,-0.131572 0.375656,-0.228745 0.138766,-0.122831 0.207351,-0.319014 0.360706,-0.423059 0.10917,-0.07407 0.280358,-0.006 0.386739,-0.08405 0.159398,-0.116893 0.235037,-0.318429 0.36508,-0.467291 0.120589,-0.138041 0.257067,-0.26135 0.385601,-0.392028 0.337066,-0.280456 0.684554,-0.699894 1.074915,-0.91231 0.101711,-0.05534 0.239834,-0.0312 0.332486,-0.100663 0.39071,-0.477957 0.1729,-0.297371 0.624716,-0.574628 0.09604,-0.134813 0.192079,-0.269623 0.28812,-0.404436 0.09944,0.0079 0.22624,0.09278 0.298315,0.02381 0.145307,-0.139036 0.139446,-0.381185 0.250434,-0.548894 0.05979,-0.09035 0.172169,-0.132321 0.250155,-0.207536 0.158192,-0.152572 0.298061,-0.323237 0.453642,-0.47847 0.07269,-0.149593 0.266626,-0.173744 0.361336,-0.297805 0.08605,-0.112709 0.18188,-0.54987 0.4015,-0.537469 0.04459,0.0026 0.07632,0.04643 0.11448,0.06964 0.107362,-0.02731 0.102473,-0.165505 0.181803,-0.216252 0.161814,-0.10351 0.02521,0.17358 0.157911,-0.07073 0.02614,-0.04812 0.006,-0.168442 0.05863,-0.153469 0.06108,0.01736 0.03269,0.122714 0.04903,0.184071 0.195559,-0.420116 0.209778,0.173619 0.22325,0.182163 0.178949,0.113493 0.0029,-0.545685 0.120486,0.02376 0.08825,0.02711 0.129281,0.261792 0.221076,0.253545 0.04698,-0.0042 0.06887,-0.08824 0.115567,-0.08164 0.0891,0.138547 0.02684,0.103291 0.178424,0.119333 0.03131,0.05162 0.04456,0.120102 0.09392,0.154847 0.02569,0.0181 0.06792,-0.04607 0.09097,-0.02471 0.05494,0.05089 0.05776,0.139287 0.09971,0.201324 0.02013,0.02978 0.06158,0.04001 0.083,0.06888 0.0615,0.08292 0.100774,0.180559 0.159334,0.265581 0.746562,0.151595 -0.468693,-0.673137 0.27954,0.303834 0.03997,0.05218 0.09172,-0.203123 0.129099,-0.149058 0.319502,0.462065 -0.15371,0.409895 0.168798,0.420116 0.02514,0.07544 0.05026,0.150868 0.0754,0.226303 0.03659,0.01566 0.08869,0.01323 0.109757,0.047 0.04579,0.0734 0.0227,0.179374 0.07461,0.248573 0.0199,0.02652 0.07108,-0.03888 0.09762,-0.01902 0.08865,0.06635 0.136607,0.323615 0.157491,0.40072 0.01842,0.06676 -7.94e-4,0.159612 0.05526,0.200279 0.03738,0.02711 0.08098,-0.106892 0.115599,-0.07634 0.01974,0.01744 0.202329,0.541406 0.225612,0.583404 0.02915,0.05258 0.09038,0.08065 0.125884,0.129169 0.04915,0.06718 0.08419,0.143627 0.126283,0.21544 0.142925,0.177916 0.31913,0.227123 0.404902,0.455448 0.04607,0.122629 0.01466,0.277 0.09333,0.381749 0.0335,0.04461 0.108066,-0.02776 0.162097,-0.04163 0.04362,0.09996 0.08724,0.199925 0.130857,0.299884 0.04776,0.09787 0.07499,0.208791 0.143293,0.293614 0.04278,0.05313 0.134208,0.05002 0.176504,0.103534 0.06863,0.08683 0.08332,0.206343 0.142396,0.299926 0.04146,0.06567 0.112025,0.109019 0.156123,0.17295 0.301074,0.436497 0.0199,0.182303 0.337,0.430324 0.354131,0.284813 0.464367,0.728345 0.69443,1.100532 0.115086,0.186176 0.245994,0.362098 0.368534,0.543451 0.0694,0.0094 0.16177,-0.02426 0.20819,0.02818 0.0979,0.110564 0.1048,0.277193 0.17642,0.406317 0.0538,0.097 0.13471,0.176374 0.19747,0.267833 0.0693,0.100991 0.11885,0.216162 0.19849,0.309218 0.0599,0.07002 0.16127,0.09899 0.21496,0.173898 0.0897,0.125182 0.13739,0.275696 0.20608,0.413544 0.0698,0.06843 0.12207,0.161253 0.20932,0.205284 0.0726,0.03666 0.17343,-0.01913 0.24305,0.02302 0.13088,0.07922 0.32736,0.474168 0.39544,0.573961 0.13299,0.19495 0.20397,0.244795 0.371,0.400428 0.0398,0.108413 0.13982,0.526918 0.32294,0.595366 0.062,0.02315 0.14176,-0.11607 0.18663,-0.06746 0.0994,0.107651 0.0516,0.298386 0.13661,0.417703 0.0364,0.05103 0.12328,0.02246 0.18493,0.03369 0.0455,0.09456 0.091,0.189116 0.13657,0.283673 0.38454,-0.0091 0.38876,0.384063 0.62431,0.580522 0.0543,0.04527 0.13693,0.03529 0.20451,0.05601 0.21098,0.08913 -0.0605,-0.0131 0.23061,0.04199 0.0915,0.0173 0.17659,0.07732 0.26964,0.07328 0.2965,-0.01286 0.48535,-0.217226 0.63479,-0.434878 0.34348,-0.108066 -0.0554,0.05506 0.28566,-0.281585 0.0367,-0.03619 0.1188,-0.0021 0.14799,-0.04458 0.0697,-0.101357 0.0487,-0.249442 0.12198,-0.348216 0.0332,-0.04469 0.10868,-0.02397 0.16302,-0.03596 0.0522,-0.09327 0.10446,-0.186542 0.15668,-0.279813 0.16578,-0.156593 0.22383,-0.388371 0.36607,-0.56021 0.0584,-0.07055 0.16426,-0.09584 0.21329,-0.173194 0.0947,-0.149426 0.071,-0.375049 0.20638,-0.488957 0.0698,-0.05876 0.16961,0.06745 0.25441,0.101184 0.0748,-0.162576 0.14956,-0.325149 0.22434,-0.487725 0.57222,-0.24425 0.67053,-0.967203 1.09423,-1.374688 0.0806,-0.07748 0.19921,-0.101443 0.29882,-0.152164 0.099,-0.124952 0.19803,-0.249904 0.29704,-0.374859 0.10457,-0.112641 0.20914,-0.22528 0.31371,-0.337921 0.10257,-0.154212 0.18665,-0.322466 0.3077,-0.462634 0.09,-0.10418 0.24826,-0.144359 0.31867,-0.262641 0.13722,-0.230553 0.16102,-0.514906 0.28558,-0.752539 0.0766,-0.146187 0.4937,-0.579615 0.61222,-0.707009 0.40796,-0.488958 0.67415,-1.078285 1.05127,-1.587685 0.41458,-0.559985 0.0549,0.107945 0.42118,-0.677947 0.009,-0.244615 0.28287,-0.22366 0.38487,-0.369282 0.28219,-0.402865 0.11552,-0.634952 0.6552,-0.856805 0.11086,-0.345144 0.20694,-0.724493 0.41668,-1.028999 0.24565,-0.356622 0.10293,0.03395 0.32191,-0.421934 0.0634,-0.132091 0.10552,-0.273418 0.15829,-0.410125 0.20557,-0.17685 0.41107,-0.549281 0.52212,-0.795325 0.0635,-0.140708 0.0809,-0.301127 0.15575,-0.43616 0.0385,-0.06949 0.11989,-0.104524 0.17538,-0.161367 0.056,-0.05733 0.10569,-0.120443 0.15854,-0.180665 0.10606,-0.156509 0.15661,-0.177012 0.16876,-0.351115 1.1e-4,-0.0016 -0.0835,0.07797 -0.003,0.07578 0.19597,-0.0053 -0.039,-0.186147 0.18654,0.05571 0.10731,0.1261 0.2831,0.366662 0.40059,0.476231 0.0431,0.04022 0.11033,0.04816 0.15301,0.08886 0.0406,0.03876 0.24338,0.351782 0.26805,0.389123 0.0313,0.152794 0.18425,0.211691 0.25964,0.329443 0.0538,0.08408 0.0734,0.18722 0.12829,0.270637 0.0381,0.05791 0.11,0.08859 0.14662,0.147437 0.0526,0.08457 0.0551,0.196778 0.11645,0.27523 0.0326,0.04171 0.0978,0.0407 0.14671,0.06105 0.0384,0.06853 0.0668,0.143819 0.11534,0.205591 0.0398,0.05066 0.10717,0.07532 0.14598,0.126775 0.22131,0.293378 0.3409,0.647904 0.62369,0.888956 0.0874,0.280773 0.28959,0.483674 0.42273,0.739346 0.11689,0.224464 0.15602,0.339241 0.36753,0.474199 0.10956,0.165172 0.14952,0.753417 0.3002,0.874205 0.0398,0.03191 0.10502,-0.105802 0.13776,-0.06668 0.01,0.01185 0.17602,0.637878 0.18449,0.669538 0.0351,0.07978 0.0569,0.166802 0.10519,0.239361 0.0255,0.03831 0.0879,0.04325 0.10978,0.08372 0.07,0.129355 0.083,0.392343 0.20016,0.509016 0.0297,0.02958 0.10967,-0.02857 0.12536,0.01032 0.0616,0.152702 0.0505,0.325424 0.0757,0.488135 0.0466,-0.04213 0.0887,-0.163002 0.13967,-0.126391 0.0845,0.06068 0.0594,0.199755 0.0975,0.296595 0.0381,0.09682 0.0679,0.200562 0.13077,0.283422 0.0353,0.04645 0.12156,0.03777 0.15126,0.08796 0.57615,0.97382 -0.20806,-0.01392 0.30503,0.600496 0.058,0.06392 0.0991,0.148738 0.17395,0.191746 0.0604,0.03472 0.15336,-0.01685 0.20719,0.02735 0.089,0.07311 0.10928,0.204642 0.18304,0.293121 0.0552,0.06623 0.1463,0.09701 0.19905,0.165227 0.0799,0.10336 0.12223,0.231315 0.1927,0.341344 0.0631,0.09856 0.13826,0.1889 0.20739,0.283348 0.35534,0.565658 0.0656,0.171045 0.48452,0.602697 0.0956,0.09849 0.17576,0.211677 0.27514,0.306337 0.0902,0.08593 0.2047,0.144526 0.29179,0.233638 0.39884,0.492403 0.18914,0.267565 0.62404,0.679193 0.60934,-0.185737 0.4473,0.242499 0.877,0.590976 0.078,0.06329 0.1997,0.06934 0.26293,0.147426 0.49277,0.608491 -0.041,0.395438 0.49603,0.540615 0.008,0.690049 0.64584,0.649444 0.92901,1.113446 0.39511,0.647425 -0.035,0.320643 0.42858,0.606169 0.2227,0.44909 0.51924,0.841705 0.84782,1.214905 0,0 0.88896,-7.959502 0.88896,-7.959502 v 0 c -0.0596,-0.0066 -0.12844,0.01275 -0.17876,-0.01984 -0.0746,-0.04834 -0.11238,-0.137872 -0.16974,-0.205825 -0.24996,-0.296061 -0.4693,-0.536921 -0.54861,-0.941297 -0.568,-0.181343 -0.34197,-0.381437 -0.69045,-0.737878 -0.0662,-0.06773 -0.19153,-0.04429 -0.26389,-0.105405 -0.11946,-0.100904 -0.42958,-0.605253 -0.50327,-0.719672 -0.95695,-0.996807 0.3629,0.298649 -0.54188,-0.373097 -0.10855,-0.08059 -0.16683,-0.214564 -0.26719,-0.305157 -0.084,-0.07578 -0.19933,-0.111831 -0.2812,-0.189854 -0.49992,-0.476385 -0.0301,-0.269553 -0.59248,-0.441487 -0.76503,-0.800962 0.24017,0.306152 -0.5563,-0.803711 -0.24936,-0.347486 -0.25675,-0.178239 -0.54651,-0.420622 -0.0924,-0.07728 -0.15717,-0.183057 -0.24403,-0.266496 -0.0702,-0.06737 -0.15054,-0.123195 -0.22581,-0.18479 -0.0658,-0.135041 -0.13162,-0.270082 -0.19743,-0.405122 -0.0649,-0.07099 -0.14744,-0.129143 -0.19457,-0.212953 -0.0737,-0.13099 -0.0506,-0.319677 -0.16181,-0.420804 -0.0557,-0.05071 -0.15756,0.135364 -0.2107,0.08193 -0.16032,-0.161222 -0.0431,-0.506008 -0.30584,-0.609685 -0.10337,-0.165825 -0.16643,-0.354849 -0.27188,-0.519364 -0.0318,-0.04954 -0.10682,-0.06403 -0.13201,-0.11721 -0.0487,-0.102921 -0.0183,-0.236718 -0.0808,-0.331973 -0.0236,-0.03592 -0.0855,0.0087 -0.12818,0.01312 -0.0341,-0.0842 -0.0681,-0.168389 -0.10213,-0.252582 -0.0329,-0.08027 -0.0577,-0.16434 -0.0987,-0.240807 -0.0308,-0.05748 -0.0946,-0.09629 -0.11506,-0.158192 -0.0444,-0.134371 -0.004,-0.295378 -0.0754,-0.417828 -0.0245,-0.04222 -0.10851,0.09022 -0.13731,0.05082 -0.11581,-0.15848 -0.0242,-0.413314 -0.18376,-0.559451 -0.0628,-0.118684 -0.15222,-0.22194 -0.21464,-0.340804 -0.0892,-0.169924 -0.12668,-0.363776 -0.21544,-0.533943 -0.0354,-0.06779 -0.0956,-0.121012 -0.12824,-0.190161 -0.0451,-0.09559 -0.0686,-0.19993 -0.10286,-0.299892 -0.047,0.01992 -0.10846,0.09905 -0.14111,0.05977 -0.081,-0.09741 -0.0484,-0.25336 -0.11125,-0.363355 -0.0311,-0.05438 -0.10912,-0.06316 -0.15601,-0.104661 -0.24713,-0.218678 -0.30289,-0.542915 -0.46756,-0.817417 -0.3533,-0.237326 -0.24583,-0.409538 -0.48623,-0.67283 -0.0409,-0.04482 -0.10695,-0.05797 -0.15669,-0.09275 -0.22105,-0.154517 -0.14732,-0.130263 -0.26286,-0.451787 -0.15869,-0.128415 -0.16191,-0.112384 -0.28404,-0.301268 -0.0488,-0.07547 -0.0543,-0.188817 -0.131,-0.235651 -0.0489,-0.02985 -0.12197,0.09729 -0.16228,0.05658 -0.0857,-0.08659 -0.0818,-0.229592 -0.1227,-0.344387 -0.0513,-0.05098 -0.10257,-0.101949 -0.15386,-0.152924 -0.0671,-0.09962 -0.42549,-0.77439 -0.46322,-0.793806 -0.0688,-0.03542 -0.14326,0.137833 -0.21014,0.09885 -0.18702,-0.109029 -0.12649,-0.462126 -0.3796,-0.526968 -0.64523,0.292963 -0.33134,-0.0263 -0.8187,-0.146254 -0.0821,-0.02019 -0.55017,0.08139 -0.6287,0.169453 -0.0855,0.09584 -0.0984,0.237231 -0.14764,0.355846 -0.4895,0.533342 0.1983,-0.245274 -0.33241,0.479856 -0.19878,0.271611 -0.22026,0.09899 -0.36771,0.451816 -0.0715,0.17108 -0.0799,0.364807 -0.15572,0.534008 -0.0394,0.08793 -0.12243,0.148821 -0.18365,0.223229 -0.0504,0.126077 -0.10091,0.252151 -0.15136,0.378225 -0.0563,0.0094 -0.12873,-0.01236 -0.16883,0.02823 -0.13958,0.141322 -0.20789,0.579837 -0.27823,0.716815 -0.0261,0.05076 -0.10348,0.05627 -0.13732,0.102216 -0.0608,0.08253 -0.0931,0.182618 -0.13965,0.273926 -0.0613,-0.0089 -0.14046,-0.07091 -0.18388,-0.02674 -0.1547,0.157337 -0.20281,0.735888 -0.28099,0.880054 -0.0311,0.05734 -0.14432,0.01468 -0.18409,0.06641 -0.60907,0.792107 0.20176,0.09905 -0.37485,0.553416 -0.0638,0.14369 -0.10746,0.298172 -0.19147,0.431073 -0.71933,1.137951 0.31166,-0.838793 -0.46263,0.582689 -0.0917,0.168264 -0.13945,0.359383 -0.24103,0.521845 -0.15987,0.255696 -0.46235,0.405453 -0.56252,0.708544 -0.0909,0.193357 -0.17116,0.392102 -0.27276,0.580072 -0.24498,0.453285 -0.57487,0.871556 -0.88069,1.284452 -0.0996,0.134429 -0.18645,0.279622 -0.30082,0.401696 -0.0906,0.09669 -0.20627,0.166394 -0.3094,0.249589 -0.0973,0.06956 -0.21586,0.116404 -0.29201,0.208677 -0.35949,0.435642 -0.17928,0.504899 -0.55387,0.915964 -0.15053,0.165184 -0.4184,0.192172 -0.56514,0.36073 -0.10895,0.125148 -0.16713,0.286697 -0.2507,0.430046 -0.56624,0.52783 0.0835,-0.115972 -0.47065,0.579686 -0.0629,0.07894 -0.15263,0.132852 -0.22018,0.207849 -0.2439,0.270822 -0.44616,0.584721 -0.63252,0.896032 -0.0656,0.07112 -0.11369,0.163825 -0.1968,0.213366 -0.0452,0.02695 -0.12629,-0.04404 -0.15789,-0.0019 -0.0787,0.104897 -0.0631,0.256773 -0.12146,0.374214 -0.0295,0.05945 -0.26931,0.253584 -0.29871,0.3443 -0.0243,0.101578 -0.0203,0.214458 -0.0728,0.304741 -0.0169,0.02911 -0.087,-0.07316 -0.0553,-0.08454 0.0246,-0.0088 0.0931,0.187468 0.16578,0.07647 0.0273,-0.0417 0.0324,-0.109712 0.002,-0.149534 -0.0184,-0.0245 -0.0472,0.0392 -0.0707,0.0588 -0.0202,-0.0123 -0.16507,-0.102536 -0.1868,-0.108183 -0.0332,-0.0086 -0.0841,0.02992 -0.10301,0.0013 -0.0471,-0.07142 -0.0181,-0.175191 -0.0607,-0.249385 -0.0625,-0.108895 -0.25689,-0.09758 -0.29345,-0.236175 -0.0536,-0.04275 -0.10036,-0.09606 -0.16093,-0.128244 -0.0497,-0.02641 -0.12462,-0.0027 -0.16296,-0.04386 -0.0973,-0.104461 -0.39824,-0.844175 -0.4598,-0.885601 -0.0596,-0.04012 -0.13322,0.05394 -0.19983,0.08091 -0.053,-0.114014 -0.0841,-0.240959 -0.15888,-0.342045 -0.0481,-0.06511 -0.1362,-0.08843 -0.19805,-0.140695 -0.35408,-0.29922 -0.63048,-0.623766 -0.7895,-1.07111 -0.0721,-0.02856 -0.15983,-0.03263 -0.21645,-0.08568 -0.28229,-0.264506 -0.33923,-0.720196 -0.56305,-1.022736 -0.048,-0.06486 -0.13318,-0.09219 -0.19196,-0.147466 -0.0712,-0.06691 -0.13084,-0.14506 -0.19626,-0.21759 -0.003,-0.0068 -0.33259,-0.682133 -0.34763,-0.698061 -0.0483,-0.05113 -0.15554,-0.0058 -0.20288,-0.05781 -0.0877,-0.09627 -0.10108,-0.24121 -0.17,-0.351674 -0.383316,-0.614365 0.0435,0.372081 -0.322562,-0.590317 -0.06451,-0.02141 -0.142068,-0.01984 -0.193543,-0.06424 -0.0719,-0.06201 -0.09749,-0.163648 -0.156729,-0.23785 -0.05037,-0.0631 -0.124457,-0.10572 -0.170505,-0.17204 -0.161944,-0.233236 -0.270637,-0.510749 -0.459404,-0.729631 -0.03429,-0.139385 -0.06858,-0.27877 -0.102878,-0.418158 -0.04807,0.0048 -0.114366,0.05256 -0.144224,0.01458 -0.0718,-0.09137 -0.03706,-0.238348 -0.105466,-0.332288 -0.02708,-0.03719 -0.103304,0.02817 -0.13798,-0.0021 -0.517493,-0.450982 0.166595,-0.08674 -0.26611,-0.296338 -0.03389,-0.124267 -0.04834,-0.255556 -0.101664,-0.372801 -0.0046,-0.01016 -0.23831,-0.24888 -0.250052,-0.267433 -0.130826,-0.206663 -0.188243,-0.468916 -0.255685,-0.698704 -0.239668,-0.04055 0.02326,0.0359 -0.186659,-0.222525 -0.02617,-0.03222 -0.08454,-0.01434 -0.118528,-0.03817 -0.204583,-0.143441 -0.11862,-0.417182 -0.317402,-0.565105 -0.159615,-0.117403 -0.07559,-0.111143 -0.251748,0.0227 -0.07671,-0.05562 -0.05177,-0.182739 -0.08805,-0.270269 -0.08904,-0.214836 -0.249901,-0.196506 -0.292182,-0.437904 -0.0417,-0.01019 -0.08357,-0.04137 -0.125111,-0.03054 -0.05138,0.01339 -0.08739,0.131694 -0.126939,0.09626 -0.07711,-0.06909 -0.03916,-0.208703 -0.0955,-0.295566 -0.01797,-0.02768 -0.07899,0.0222 -0.09891,-0.0041 -0.183097,-0.241843 -0.0013,-0.385112 -0.218911,-0.105807 -0.220369,-0.16527 0.05739,0.07092 -0.173675,-0.40453 -0.04362,-0.08975 -0.179245,0.04894 -0.206589,0.02313 -0.262517,-0.247772 0.09589,-0.241454 -0.193638,-0.214622 -0.336032,0.272092 0.101954,-0.01381 -0.227262,-0.194633 -0.06675,-0.03666 -0.09044,0.12867 -0.156649,0.166307 -0.196572,0.111752 -0.150003,-0.125011 -0.263165,-0.187119 -0.0472,-0.0259 -0.10464,0.02545 -0.156959,0.0382 -0.391059,-0.343892 -0.149979,0.113972 -0.471426,0.187955 -0.250246,0.05759 -0.256268,-0.345554 -0.48078,0.06823 -0.156274,0.143039 -0.125794,0.157543 -0.325284,0.194006 -0.05647,0.01032 -0.140211,-0.03545 -0.171762,0.01251 -0.09224,0.140198 -0.04268,0.35274 -0.152194,0.479894 -0.08646,0.100383 -0.370282,-0.362532 -0.386834,0.09126 -0.0605,0.165976 -0.08407,0.350563 -0.181502,0.497922 -0.04991,0.07549 -0.168042,0.07434 -0.236214,0.133861 -0.09756,0.08519 -0.163259,0.201618 -0.253929,0.294111 -0.285972,0.291721 -0.655082,0.456517 -0.821616,0.859311 -0.09142,0.101782 -0.182835,0.203565 -0.274251,0.305345 -0.0993,0.03402 -0.224494,0.02702 -0.297902,0.102044 -0.138986,0.142052 -0.173144,0.363268 -0.303845,0.51298 -0.08948,0.102491 -0.236022,0.137922 -0.340503,0.22507 -0.963996,0.804082 0.214429,-0.02985 -0.743318,0.620041 -0.281932,0.155712 -0.51463,0.262567 -0.75456,0.487034 -0.138049,0.129148 -0.238638,0.29459 -0.375441,0.425056 -0.113117,0.107878 -0.248536,0.189672 -0.371001,0.286811 -0.479676,0.380479 -0.197628,0.255161 -0.734936,0.386749 -0.118755,0.196107 -0.192804,0.427569 -0.356267,0.588322 -0.09982,0.09817 -0.268975,0.08331 -0.392908,0.148442 -0.140574,0.07387 -0.683091,0.471133 -0.784101,0.574307 -0.146122,0.149249 -0.238334,0.346673 -0.389361,0.490956 -0.118917,0.113607 -0.273812,0.182261 -0.410715,0.273389 -0.141955,0.144512 -0.291894,0.281593 -0.425863,0.433538 -0.155969,0.176898 -0.26157,0.400934 -0.442865,0.551767 -0.127738,0.106273 -0.316497,0.109908 -0.457711,0.197488 -0.163959,0.101685 -0.299405,0.243406 -0.449214,0.364977 -0.592154,0.480531 -0.302943,0.21359 -0.848366,0.789022 -0.141248,0.03256 -0.295926,0.02932 -0.423741,0.09768 -0.321997,0.172244 -0.536228,0.501253 -0.842129,0.700685 -0.419679,0.273611 -0.923366,0.260864 -1.210328,0.734732 -0.966033,0.01434 0.293224,-0.07618 -0.65804,0.255117 -0.0858,0.02988 -0.180197,-0.07177 -0.268134,-0.04893 -0.178205,0.04629 -0.321088,0.357145 -0.404349,0.306697 -0.106003,-0.06423 -0.107972,-0.223134 -0.161957,-0.3347 0,0 0.106796,8.184671 0.106796,8.184671 z" />
  </g>
</svg>
